<mxfile host="app.diagrams.net" agent="Mozilla/5.0 (Windows NT 10.0; Win64; x64) AppleWebKit/537.36 (KHTML, like Gecko) Chrome/128.0.0.0 Safari/537.36" version="24.7.10">
  <diagram name="Page-1" id="6Fdn33HUMTM8-NcyQknh">
    <mxGraphModel dx="2206" dy="1145" grid="1" gridSize="10" guides="1" tooltips="1" connect="1" arrows="1" fold="1" page="1" pageScale="1" pageWidth="850" pageHeight="1100" math="0" shadow="0">
      <root>
        <mxCell id="0" />
        <mxCell id="1" style="" parent="0" />
        <mxCell id="jw8WqyevVliO5xUcH5Fn-9" value="" style="rounded=1;whiteSpace=wrap;html=1;movable=1;resizable=1;rotatable=1;deletable=1;editable=1;locked=0;connectable=1;" vertex="1" parent="1">
          <mxGeometry y="330" width="850" height="600" as="geometry" />
        </mxCell>
        <mxCell id="jw8WqyevVliO5xUcH5Fn-3" value="" style="outlineConnect=0;dashed=0;verticalLabelPosition=bottom;verticalAlign=top;align=center;html=1;shape=mxgraph.aws3.traditional_server;fillColor=#a20025;strokeColor=#6F0000;fontColor=#ffffff;" vertex="1" parent="1">
          <mxGeometry x="756.75" y="180" width="46.5" height="63" as="geometry" />
        </mxCell>
        <mxCell id="jw8WqyevVliO5xUcH5Fn-10" value="&lt;font style=&quot;font-size: 24px;&quot;&gt;VULTR&lt;/font&gt;" style="text;html=1;align=center;verticalAlign=middle;whiteSpace=wrap;rounded=0;" vertex="1" parent="1">
          <mxGeometry x="50" y="380" width="60" height="30" as="geometry" />
        </mxCell>
        <mxCell id="jw8WqyevVliO5xUcH5Fn-21" value="Command&lt;div&gt;&amp;amp;&lt;/div&gt;&lt;div&gt;Control&lt;/div&gt;&lt;div&gt;C2 Server&lt;/div&gt;" style="text;html=1;align=center;verticalAlign=middle;whiteSpace=wrap;rounded=0;" vertex="1" parent="1">
          <mxGeometry x="750" y="250" width="60" height="50" as="geometry" />
        </mxCell>
        <mxCell id="jw8WqyevVliO5xUcH5Fn-22" value="VPC" style="sketch=0;outlineConnect=0;gradientColor=none;html=1;whiteSpace=wrap;fontSize=12;fontStyle=0;shape=mxgraph.aws4.group;grIcon=mxgraph.aws4.group_vpc;strokeColor=#879196;fillColor=none;verticalAlign=top;align=left;spacingLeft=30;fontColor=#879196;dashed=0;movable=1;resizable=1;rotatable=1;deletable=1;editable=1;locked=0;connectable=1;" vertex="1" parent="1">
          <mxGeometry x="40" y="410" width="770" height="480" as="geometry" />
        </mxCell>
        <mxCell id="jw8WqyevVliO5xUcH5Fn-25" style="edgeStyle=orthogonalEdgeStyle;rounded=0;orthogonalLoop=1;jettySize=auto;html=1;exitX=1;exitY=0.5;exitDx=0;exitDy=0;exitPerimeter=0;" edge="1" parent="1" source="jw8WqyevVliO5xUcH5Fn-1" target="jw8WqyevVliO5xUcH5Fn-4">
          <mxGeometry relative="1" as="geometry" />
        </mxCell>
        <mxCell id="jw8WqyevVliO5xUcH5Fn-30" value="Managed" style="edgeLabel;html=1;align=center;verticalAlign=middle;resizable=0;points=[];" vertex="1" connectable="0" parent="jw8WqyevVliO5xUcH5Fn-25">
          <mxGeometry x="-0.218" y="2" relative="1" as="geometry">
            <mxPoint as="offset" />
          </mxGeometry>
        </mxCell>
        <mxCell id="jw8WqyevVliO5xUcH5Fn-29" style="rounded=0;orthogonalLoop=1;jettySize=auto;html=1;dashed=1;dashPattern=12 12;strokeColor=#0000FF;" edge="1" parent="1" source="jw8WqyevVliO5xUcH5Fn-1" target="jw8WqyevVliO5xUcH5Fn-2">
          <mxGeometry relative="1" as="geometry">
            <mxPoint x="100" y="470" as="targetPoint" />
          </mxGeometry>
        </mxCell>
        <mxCell id="jw8WqyevVliO5xUcH5Fn-35" value="Forward Logs Via Agent" style="edgeLabel;html=1;align=center;verticalAlign=middle;resizable=0;points=[];" vertex="1" connectable="0" parent="jw8WqyevVliO5xUcH5Fn-29">
          <mxGeometry x="-0.0937" y="-1" relative="1" as="geometry">
            <mxPoint as="offset" />
          </mxGeometry>
        </mxCell>
        <mxCell id="jw8WqyevVliO5xUcH5Fn-1" value="" style="outlineConnect=0;dashed=0;verticalLabelPosition=bottom;verticalAlign=top;align=center;html=1;shape=mxgraph.aws3.traditional_server;fillColor=#7D7C7C;gradientColor=none;" vertex="1" parent="1">
          <mxGeometry x="76.75" y="730" width="46.5" height="63" as="geometry" />
        </mxCell>
        <mxCell id="jw8WqyevVliO5xUcH5Fn-2" value="" style="outlineConnect=0;dashed=0;verticalLabelPosition=bottom;verticalAlign=top;align=center;html=1;shape=mxgraph.aws3.traditional_server;fillColor=#dae8fc;strokeColor=#6c8ebf;" vertex="1" parent="1">
          <mxGeometry x="401.75" y="430" width="46.5" height="63" as="geometry" />
        </mxCell>
        <mxCell id="jw8WqyevVliO5xUcH5Fn-26" style="edgeStyle=orthogonalEdgeStyle;rounded=0;orthogonalLoop=1;jettySize=auto;html=1;exitX=0.5;exitY=0;exitDx=0;exitDy=0;exitPerimeter=0;dashed=1;dashPattern=8 8;strokeColor=#FFD966;endArrow=classic;endFill=1;startArrow=classic;startFill=1;" edge="1" parent="1">
          <mxGeometry relative="1" as="geometry">
            <mxPoint x="424.9999999999998" y="730" as="sourcePoint" />
            <mxPoint x="430.0476190476188" y="493" as="targetPoint" />
            <Array as="points">
              <mxPoint x="425" y="650" />
              <mxPoint x="430" y="650" />
            </Array>
          </mxGeometry>
        </mxCell>
        <mxCell id="jw8WqyevVliO5xUcH5Fn-27" value="Managed Agents" style="edgeLabel;html=1;align=center;verticalAlign=middle;resizable=0;points=[];" vertex="1" connectable="0" parent="jw8WqyevVliO5xUcH5Fn-26">
          <mxGeometry x="-0.0073" relative="1" as="geometry">
            <mxPoint as="offset" />
          </mxGeometry>
        </mxCell>
        <mxCell id="jw8WqyevVliO5xUcH5Fn-4" value="" style="outlineConnect=0;dashed=0;verticalLabelPosition=bottom;verticalAlign=top;align=center;html=1;shape=mxgraph.aws3.traditional_server;fillColor=#e1d5e7;strokeColor=#9673a6;" vertex="1" parent="1">
          <mxGeometry x="396.75" y="730" width="46.5" height="63" as="geometry" />
        </mxCell>
        <mxCell id="jw8WqyevVliO5xUcH5Fn-31" style="edgeStyle=orthogonalEdgeStyle;rounded=0;orthogonalLoop=1;jettySize=auto;html=1;" edge="1" parent="1" source="jw8WqyevVliO5xUcH5Fn-6" target="jw8WqyevVliO5xUcH5Fn-4">
          <mxGeometry relative="1" as="geometry" />
        </mxCell>
        <mxCell id="jw8WqyevVliO5xUcH5Fn-32" value="Managed" style="edgeLabel;html=1;align=center;verticalAlign=middle;resizable=0;points=[];" vertex="1" connectable="0" parent="jw8WqyevVliO5xUcH5Fn-31">
          <mxGeometry x="-0.0565" relative="1" as="geometry">
            <mxPoint as="offset" />
          </mxGeometry>
        </mxCell>
        <mxCell id="jw8WqyevVliO5xUcH5Fn-34" style="rounded=0;orthogonalLoop=1;jettySize=auto;html=1;entryX=0.98;entryY=0.98;entryDx=0;entryDy=0;entryPerimeter=0;dashed=1;dashPattern=12 12;" edge="1" parent="1" source="jw8WqyevVliO5xUcH5Fn-6" target="jw8WqyevVliO5xUcH5Fn-2">
          <mxGeometry relative="1" as="geometry">
            <mxPoint x="650" y="500" as="targetPoint" />
          </mxGeometry>
        </mxCell>
        <mxCell id="jw8WqyevVliO5xUcH5Fn-36" value="Forward Logs Via Agent" style="edgeLabel;html=1;align=center;verticalAlign=middle;resizable=0;points=[];" vertex="1" connectable="0" parent="jw8WqyevVliO5xUcH5Fn-34">
          <mxGeometry x="-0.2367" y="2" relative="1" as="geometry">
            <mxPoint as="offset" />
          </mxGeometry>
        </mxCell>
        <mxCell id="jw8WqyevVliO5xUcH5Fn-6" value="" style="outlineConnect=0;dashed=0;verticalLabelPosition=bottom;verticalAlign=top;align=center;html=1;shape=mxgraph.aws3.traditional_server;fillColor=#7D7C7C;gradientColor=none;" vertex="1" parent="1">
          <mxGeometry x="726.75" y="740" width="46.5" height="63" as="geometry" />
        </mxCell>
        <mxCell id="jw8WqyevVliO5xUcH5Fn-7" value="" style="outlineConnect=0;dashed=0;verticalLabelPosition=bottom;verticalAlign=top;align=center;html=1;shape=mxgraph.aws3.traditional_server;fillColor=#ffe6cc;strokeColor=#d79b00;" vertex="1" parent="1">
          <mxGeometry x="726.75" y="430" width="46.5" height="63" as="geometry" />
        </mxCell>
        <mxCell id="jw8WqyevVliO5xUcH5Fn-11" value="Elastic&lt;div&gt;&amp;amp;&lt;/div&gt;&lt;div&gt;Kibana&lt;/div&gt;" style="text;html=1;align=center;verticalAlign=middle;whiteSpace=wrap;rounded=0;" vertex="1" parent="1">
          <mxGeometry x="395" y="510" width="60" height="40" as="geometry" />
        </mxCell>
        <mxCell id="jw8WqyevVliO5xUcH5Fn-17" value="Windows Server&lt;div&gt;RDP Enabled&lt;/div&gt;" style="text;html=1;align=center;verticalAlign=middle;whiteSpace=wrap;rounded=0;" vertex="1" parent="1">
          <mxGeometry x="70" y="810" width="60" height="50" as="geometry" />
        </mxCell>
        <mxCell id="jw8WqyevVliO5xUcH5Fn-18" value="Ubuntu Server&lt;div&gt;SSH Enabled&lt;/div&gt;" style="text;html=1;align=center;verticalAlign=middle;whiteSpace=wrap;rounded=0;" vertex="1" parent="1">
          <mxGeometry x="720" y="820" width="60" height="50" as="geometry" />
        </mxCell>
        <mxCell id="jw8WqyevVliO5xUcH5Fn-19" value="Fleet&lt;div&gt;Server&lt;/div&gt;" style="text;html=1;align=center;verticalAlign=middle;whiteSpace=wrap;rounded=0;" vertex="1" parent="1">
          <mxGeometry x="390" y="810" width="60" height="30" as="geometry" />
        </mxCell>
        <mxCell id="jw8WqyevVliO5xUcH5Fn-20" value="OS Ticket&lt;div&gt;Server&lt;/div&gt;" style="text;html=1;align=center;verticalAlign=middle;whiteSpace=wrap;rounded=0;" vertex="1" parent="1">
          <mxGeometry x="720" y="510" width="60" height="30" as="geometry" />
        </mxCell>
        <mxCell id="jw8WqyevVliO5xUcH5Fn-28" style="edgeStyle=orthogonalEdgeStyle;rounded=0;orthogonalLoop=1;jettySize=auto;html=1;entryX=0;entryY=0.5;entryDx=0;entryDy=0;entryPerimeter=0;startArrow=classic;startFill=1;dashed=1;dashPattern=12 12;fillColor=#fff2cc;strokeColor=#d6b656;" edge="1" parent="1" source="jw8WqyevVliO5xUcH5Fn-2" target="jw8WqyevVliO5xUcH5Fn-7">
          <mxGeometry relative="1" as="geometry" />
        </mxCell>
        <mxCell id="jw8WqyevVliO5xUcH5Fn-37" value="Alets/Tickets" style="edgeLabel;html=1;align=center;verticalAlign=middle;resizable=0;points=[];" vertex="1" connectable="0" parent="jw8WqyevVliO5xUcH5Fn-28">
          <mxGeometry x="-0.0286" y="-3" relative="1" as="geometry">
            <mxPoint as="offset" />
          </mxGeometry>
        </mxCell>
        <mxCell id="jw8WqyevVliO5xUcH5Fn-24" value="Untitled Layer" parent="0" />
        <mxCell id="jw8WqyevVliO5xUcH5Fn-38" value="&lt;font color=&quot;#ffffff&quot;&gt;Private Network: 172.31.0.0/24&lt;/font&gt;&lt;div&gt;&lt;font color=&quot;#ffffff&quot;&gt;IP Range: 172.31.0.1 - 254&lt;/font&gt;&lt;/div&gt;&lt;div&gt;&lt;font color=&quot;#ffffff&quot;&gt;Subnet Mask: 255.255.255.0&lt;/font&gt;&lt;/div&gt;" style="text;html=1;align=left;verticalAlign=middle;whiteSpace=wrap;rounded=0;fillColor=#67AB9F;" vertex="1" parent="jw8WqyevVliO5xUcH5Fn-24">
          <mxGeometry x="50" y="450" width="230" height="50" as="geometry" />
        </mxCell>
        <mxCell id="jw8WqyevVliO5xUcH5Fn-39" value="" style="outlineConnect=0;dashed=0;verticalLabelPosition=bottom;verticalAlign=top;align=center;html=1;shape=mxgraph.aws3.internet_gateway;fillColor=#F58534;gradientColor=none;" vertex="1" parent="jw8WqyevVliO5xUcH5Fn-24">
          <mxGeometry x="401" y="340" width="47.92" height="50" as="geometry" />
        </mxCell>
        <mxCell id="jw8WqyevVliO5xUcH5Fn-44" style="edgeStyle=orthogonalEdgeStyle;rounded=0;orthogonalLoop=1;jettySize=auto;html=1;" edge="1" parent="jw8WqyevVliO5xUcH5Fn-24" source="jw8WqyevVliO5xUcH5Fn-40" target="jw8WqyevVliO5xUcH5Fn-39">
          <mxGeometry relative="1" as="geometry" />
        </mxCell>
        <mxCell id="jw8WqyevVliO5xUcH5Fn-40" value="" style="image;aspect=fixed;perimeter=ellipsePerimeter;html=1;align=center;shadow=0;dashed=0;spacingTop=3;image=img/lib/active_directory/internet_cloud.svg;" vertex="1" parent="jw8WqyevVliO5xUcH5Fn-24">
          <mxGeometry x="354.96" y="150" width="160" height="100.8" as="geometry" />
        </mxCell>
        <mxCell id="jw8WqyevVliO5xUcH5Fn-41" value="Internet" style="text;html=1;align=center;verticalAlign=middle;resizable=0;points=[];autosize=1;strokeColor=none;fillColor=none;" vertex="1" parent="jw8WqyevVliO5xUcH5Fn-24">
          <mxGeometry x="405" y="185.4" width="60" height="30" as="geometry" />
        </mxCell>
        <mxCell id="jw8WqyevVliO5xUcH5Fn-46" style="edgeStyle=orthogonalEdgeStyle;rounded=0;orthogonalLoop=1;jettySize=auto;html=1;entryX=0;entryY=0.5;entryDx=0;entryDy=0;" edge="1" parent="jw8WqyevVliO5xUcH5Fn-24" source="jw8WqyevVliO5xUcH5Fn-42" target="jw8WqyevVliO5xUcH5Fn-40">
          <mxGeometry relative="1" as="geometry" />
        </mxCell>
        <mxCell id="jw8WqyevVliO5xUcH5Fn-47" value="Connect to&lt;div&gt;Elastic/Kibana&lt;/div&gt;&lt;div&gt;via Web GUI&lt;/div&gt;" style="edgeLabel;html=1;align=center;verticalAlign=middle;resizable=0;points=[];" vertex="1" connectable="0" parent="jw8WqyevVliO5xUcH5Fn-46">
          <mxGeometry x="0.0134" y="-1" relative="1" as="geometry">
            <mxPoint as="offset" />
          </mxGeometry>
        </mxCell>
        <mxCell id="jw8WqyevVliO5xUcH5Fn-42" value="SOC Defender Machine" style="sketch=0;pointerEvents=1;shadow=0;dashed=0;html=1;strokeColor=none;fillColor=#505050;labelPosition=center;verticalLabelPosition=bottom;verticalAlign=top;outlineConnect=0;align=center;shape=mxgraph.office.devices.workstation_pc;" vertex="1" parent="jw8WqyevVliO5xUcH5Fn-24">
          <mxGeometry x="50" y="170.9" width="53" height="59" as="geometry" />
        </mxCell>
        <mxCell id="jw8WqyevVliO5xUcH5Fn-48" style="edgeStyle=orthogonalEdgeStyle;rounded=0;orthogonalLoop=1;jettySize=auto;html=1;" edge="1" parent="jw8WqyevVliO5xUcH5Fn-24" source="jw8WqyevVliO5xUcH5Fn-43" target="jw8WqyevVliO5xUcH5Fn-40">
          <mxGeometry relative="1" as="geometry" />
        </mxCell>
        <mxCell id="jw8WqyevVliO5xUcH5Fn-43" value="Attacker Machine" style="image;sketch=0;aspect=fixed;html=1;points=[];align=center;fontSize=12;image=img/lib/mscae/VM_Linux.svg;" vertex="1" parent="jw8WqyevVliO5xUcH5Fn-24">
          <mxGeometry x="720" y="20" width="50" height="46" as="geometry" />
        </mxCell>
        <mxCell id="jw8WqyevVliO5xUcH5Fn-45" style="edgeStyle=orthogonalEdgeStyle;rounded=0;orthogonalLoop=1;jettySize=auto;html=1;entryX=0.5;entryY=0;entryDx=0;entryDy=0;entryPerimeter=0;" edge="1" parent="jw8WqyevVliO5xUcH5Fn-24" source="jw8WqyevVliO5xUcH5Fn-39" target="jw8WqyevVliO5xUcH5Fn-2">
          <mxGeometry relative="1" as="geometry" />
        </mxCell>
        <mxCell id="jw8WqyevVliO5xUcH5Fn-49" style="edgeStyle=orthogonalEdgeStyle;rounded=0;orthogonalLoop=1;jettySize=auto;html=1;" edge="1" parent="jw8WqyevVliO5xUcH5Fn-24" source="jw8WqyevVliO5xUcH5Fn-3" target="jw8WqyevVliO5xUcH5Fn-40">
          <mxGeometry relative="1" as="geometry" />
        </mxCell>
      </root>
    </mxGraphModel>
  </diagram>
</mxfile>
